<svg xmlns="http://www.w3.org/2000/svg" width="25" height="22" viewBox="0 0 25 22"><g><g><path fill="#e74c3c" d="M25 7.597v10.98c0 1.863-1.511 3.422-3.352 3.422H3.352C1.51 22 0 20.44 0 18.577V7.597C0 5.732 1.51 4.201 3.352 4.201l2.431-.014L8.379.375a.826.826 0 0 1 .673-.376h6.772a.83.83 0 0 1 .687.39l2.514 3.798 2.623.014C23.488 4.2 25 5.732 25 7.597zm-1.648 10.98h-.014V7.597c0-.946-.77-1.725-1.703-1.725l-3.077-.028a.846.846 0 0 1-.673-.376l-2.5-3.786H9.492L6.896 5.495a.824.824 0 0 1-.673.376H3.352c-.934 0-1.704.78-1.704 1.726v10.98c0 .945.77 1.752 1.704 1.752h18.296c.934 0 1.704-.807 1.704-1.752zm-4.945-6.458c0 3.256-2.624 5.914-5.838 5.914-3.215 0-5.838-2.658-5.838-5.914s2.61-5.914 5.838-5.914c3.214 0 5.838 2.658 5.838 5.914zm-1.649 0c0-2.338-1.882-4.243-4.19-4.243-2.307 0-4.189 1.905-4.189 4.243s1.882 4.244 4.19 4.244c2.307 0 4.19-1.906 4.19-4.244zm3.627-3.785c.174 0 .316.143.316.32 0 .177-.142.32-.316.32a.318.318 0 0 1-.316-.32c0-.177.141-.32.316-.32zm1.14.32c0 .64-.509 1.155-1.14 1.155-.632 0-1.14-.515-1.14-1.154 0-.641.508-1.156 1.14-1.156.631 0 1.14.515 1.14 1.156zm-.632 0a.52.52 0 0 0-.508-.515.52.52 0 0 0-.509.516c0 .278.22.514.509.514a.51.51 0 0 0 .508-.514z"/></g></g></svg>