<svg xmlns="http://www.w3.org/2000/svg" width="21" height="20" viewBox="0 0 21 20"><g><g><path d="M20.391 14.907c0 2.807-2.264 5.08-5.057 5.08-1.271 0-2.43-.24-3.318-1.019a8.89 8.89 0 0 1-1.836.193c-4.899 0-8.869-4.222-8.869-9.143 0-.649.073-1.28.204-1.889a5.063 5.063 0 0 1-1.02-3.048c0-2.808 2.266-5.083 5.058-5.083 1.254 0 2.4.696 3.283 1.455a9 9 0 0 1 1.344-.112c4.899 0 8.87 3.755 8.87 8.677 0 .452-.046.892-.11 1.328a5.07 5.07 0 0 1 1.451 3.561zm-5.549-2.488c0-.524-.1-.967-.302-1.325a2.544 2.544 0 0 0-.841-.896A5.467 5.467 0 0 0 12.39 9.6a18.773 18.773 0 0 0-1.716-.454 32.247 32.247 0 0 1-1.087-.266 3.592 3.592 0 0 1-.65-.256 1.487 1.487 0 0 1-.504-.387.827.827 0 0 1-.184-.536c0-.336.18-.622.54-.86.359-.238.832-.355 1.417-.355.633 0 1.091.109 1.377.328.287.219.53.523.735.914.157.274.304.47.44.59.134.12.332.18.592.18a.954.954 0 0 0 .715-.3.95.95 0 0 0 .287-.676c0-.271-.077-.552-.23-.839-.152-.287-.395-.561-.727-.824-.331-.26-.747-.47-1.25-.628-.501-.157-1.097-.236-1.785-.236-.861 0-1.61.118-2.248.356-.638.239-1.125.58-1.46 1.022a2.436 2.436 0 0 0-.505 1.518c0 .598.158 1.097.477 1.5.318.404.75.72 1.293.955.542.232 1.216.436 2.022.61.602.127 1.082.248 1.442.36.36.114.653.277.88.49.226.213.34.494.34.837 0 .433-.211.796-.631 1.084-.421.29-.968.435-1.64.435-.49 0-.885-.073-1.187-.216a1.838 1.838 0 0 1-.699-.547 4.085 4.085 0 0 1-.463-.825c-.116-.28-.258-.488-.424-.63a.9.9 0 0 0-.608-.213c-.296 0-.54.091-.73.274a.865.865 0 0 0-.287.652c0 .439.16.89.478 1.352.319.465.734.837 1.242 1.114.72.385 1.632.578 2.739.578.922 0 1.72-.14 2.393-.424.673-.282 1.184-.673 1.534-1.171a2.878 2.878 0 0 0 .524-1.687z"/></g></g></svg>