<svg xmlns="http://www.w3.org/2000/svg" width="27" height="22" viewBox="0 0 27 22"><g><g><path fill="#e74c3c" d="M21.066 21.559c0 .243-.2.44-.445.44H6.379a.443.443 0 0 1-.445-.44c0-.244.2-.44.445-.44h5.192v-1.907c0-.243.2-.44.445-.44.246 0 .446.197.446.44v1.907h2.076v-1.907c0-.243.2-.44.445-.44.246 0 .445.197.445.44v1.907h5.193c.246 0 .445.196.445.44zM27 1.026v15.84c0 .566-.466 1.026-1.038 1.026h-.742v.148c0 .242-.2.439-.445.439a.442.442 0 0 1-.445-.44v-.147h-.89v.148c0 .242-.2.439-.446.439a.442.442 0 0 1-.445-.44v-.147h-.89v.148c0 .242-.199.439-.445.439a.442.442 0 0 1-.445-.44v-.147H1.04c-.573 0-1.04-.46-1.04-1.026V1.026C0 .46.467 0 1.04 0h24.923c.572 0 1.038.46 1.038 1.027zm-.89 0a.15.15 0 0 0-.148-.147H1.038a.15.15 0 0 0-.148.147v15.84a.15.15 0 0 0 .148.146h24.924a.15.15 0 0 0 .148-.146zM25.22 2.2v9.387c0 .243-.2.44-.445.44a.442.442 0 0 1-.445-.44V2.639H2.225a.443.443 0 0 1-.445-.44c0-.243.2-.44.445-.44h22.55c.245 0 .445.197.445.44zm0 11.147v2.346c0 .243-.2.44-.445.44H2.225a.443.443 0 0 1-.445-.44V3.959c0-.243.2-.44.445-.44.246 0 .445.197.445.44v11.294h21.66v-1.907c0-.243.199-.44.445-.44.245 0 .445.197.445.44z"/></g></g></svg>