<svg xmlns="http://www.w3.org/2000/svg" width="29" height="25" viewBox="0 0 29 25"><defs><mask id="2b9pb" width="2.02" height="2.02" x="-1.01" y="-1.01"><path fill="#fff" d="M3.8.8h21.4v17.4H3.8z"/><path d="M24.542 3.058c-.335.186-1.34.557-2.277.65.601-.327 1.49-1.392 1.71-2.241-.578.373-1.905.914-2.56.914v.001C20.668 1.6 19.615.977 18.45.977c-2.267 0-3.923 1.977-3.923 4.253 0 .316.037.625.104.921h-.001c-3.075-.082-6.618-1.787-8.643-4.436C4.742 3.88 5.819 6.442 7.231 7.32c-.483.037-1.374-.055-1.792-.467-.028 1.437.659 3.34 3.166 4.03-.482.261-1.337.187-1.709.13.13 1.214 1.82 2.8 3.669 2.8-.659.764-3.137 2.153-5.919 1.712a12.287 12.287 0 0 0 6.42 1.822c6.623 0 12.05-5.39 11.773-12.042l-.001-.023.001-.052-.002-.06c.603-.415 1.127-1.148 1.705-2.112z"/></mask><filter id="2b9pa" width="47.2" height="46.2" x="-9.1" y="-12.1" filterUnits="userSpaceOnUse"><feOffset dy="3" in="SourceGraphic" result="FeOffset1077Out"/><feGaussianBlur in="FeOffset1077Out" result="FeGaussianBlur1078Out" stdDeviation="1.16 1.16"/></filter></defs><g><g><g filter="url(#2b9pa)"><path fill="none" stroke="#000" stroke-opacity=".25" stroke-width=".4" d="M24.542 3.058c-.335.186-1.34.557-2.277.65.601-.327 1.49-1.392 1.71-2.241-.578.373-1.905.914-2.56.914v.001C20.668 1.6 19.615.977 18.45.977c-2.267 0-3.923 1.977-3.923 4.253 0 .316.037.625.104.921h-.001c-3.075-.082-6.618-1.787-8.643-4.436C4.742 3.88 5.819 6.442 7.231 7.32c-.483.037-1.374-.055-1.792-.467-.028 1.437.659 3.34 3.166 4.03-.482.261-1.337.187-1.709.13.13 1.214 1.82 2.8 3.669 2.8-.659.764-3.137 2.153-5.919 1.712a12.287 12.287 0 0 0 6.42 1.822c6.623 0 12.05-5.39 11.773-12.042l-.001-.023.001-.052-.002-.06c.603-.415 1.127-1.148 1.705-2.112z" mask="url(&quot;#2b9pb&quot;)"/><path fill-opacity=".25" d="M24.542 3.058c-.335.186-1.34.557-2.277.65.601-.327 1.49-1.392 1.71-2.241-.578.373-1.905.914-2.56.914v.001C20.668 1.6 19.615.977 18.45.977c-2.267 0-3.923 1.977-3.923 4.253 0 .316.037.625.104.921h-.001c-3.075-.082-6.618-1.787-8.643-4.436C4.742 3.88 5.819 6.442 7.231 7.32c-.483.037-1.374-.055-1.792-.467-.028 1.437.659 3.34 3.166 4.03-.482.261-1.337.187-1.709.13.13 1.214 1.82 2.8 3.669 2.8-.659.764-3.137 2.153-5.919 1.712a12.287 12.287 0 0 0 6.42 1.822c6.623 0 12.05-5.39 11.773-12.042l-.001-.023.001-.052-.002-.06c.603-.415 1.127-1.148 1.705-2.112z"/></g><path fill="#e74c3c" d="M24.542 3.058c-.335.186-1.34.557-2.277.65.601-.327 1.49-1.392 1.71-2.241-.578.373-1.905.914-2.56.914v.001C20.668 1.6 19.615.977 18.45.977c-2.267 0-3.923 1.977-3.923 4.253 0 .316.037.625.104.921h-.001c-3.075-.082-6.618-1.787-8.643-4.436C4.742 3.88 5.819 6.442 7.231 7.32c-.483.037-1.374-.055-1.792-.467-.028 1.437.659 3.34 3.166 4.03-.482.261-1.337.187-1.709.13.13 1.214 1.82 2.8 3.669 2.8-.659.764-3.137 2.153-5.919 1.712a12.287 12.287 0 0 0 6.42 1.822c6.623 0 12.05-5.39 11.773-12.042l-.001-.023.001-.052-.002-.06c.603-.415 1.127-1.148 1.705-2.112z"/></g></g></svg>